<svg xmlns="http://www.w3.org/2000/svg" xmlns:xlink="http://www.w3.org/1999/xlink" width="512" height="512"><linearGradient id="a" x1="130.5" x2="130.5" y1="12" y2="490.602" gradientUnits="userSpaceOnUse"><stop offset="0" stop-color="#00efd1"/><stop offset="1" stop-color="#00acea"/></linearGradient><linearGradient xlink:href="#a" id="b" x1="255.5" x2="255.5" y1="12" y2="490.602"/><linearGradient xlink:href="#a" id="c" x1="380.5" x2="380.5" y1="12" y2="490.602"/><path fill="url(#a)" d="M172 76H89a10 10 0 0 0-10 10v83a10 10 0 0 0 10 10h83a10 10 0 0 0 10-10V86a10 10 0 0 0-10-10zm-9 84H99V96h64z"/><path fill="url(#b)" d="M297 76h-83a10 10 0 0 0-10 10v83a10 10 0 0 0 10 10h83a10 10 0 0 0 10-10V86a10 10 0 0 0-10-10zm-9 84h-64V96h64z"/><path fill="url(#a)" d="M172 202H89a10 10 0 0 0-10 10v83a10 10 0 0 0 10 10h83a10 10 0 0 0 10-10v-83a10 10 0 0 0-10-10zm-9 83H99v-63h64z"/><path fill="url(#b)" d="M297 202h-83a10 10 0 0 0-10 10v83a10 10 0 0 0 10 10h83a10 10 0 0 0 10-10v-83a10 10 0 0 0-10-10zm-9 83h-64v-63h64z"/><path fill="url(#c)" d="M422 76h-83a10 10 0 0 0-10 10v83a10 10 0 0 0 10 10h83a10 10 0 0 0 10-10V86a10 10 0 0 0-10-10zm-9 84h-64V96h64zM422 202h-83a10 10 0 0 0-10 10v83a10 10 0 0 0 10 10h83a10 10 0 0 0 10-10v-83a10 10 0 0 0-10-10zm-9 83h-64v-63h64z"/><path fill="url(#a)" d="M172 332H89a10 10 0 0 0-10 10v83a10 10 0 0 0 10 10h83a10 10 0 0 0 10-10v-83a10 10 0 0 0-10-10zm-9 84H99v-64h64z"/><path fill="url(#b)" d="M297 332h-83a10 10 0 0 0-10 10v83a10 10 0 0 0 10 10h83a10 10 0 0 0 10-10v-83a10 10 0 0 0-10-10zm-9 84h-64v-64h64z"/><path fill="url(#c)" d="M422 332h-83a10 10 0 0 0-10 10v83a10 10 0 0 0 10 10h83a10 10 0 0 0 10-10v-83a10 10 0 0 0-10-10zm-9 84h-64v-64h64z"/></svg>